<?xml version="1.0"?>
<svg xmlns="http://www.w3.org/2000/svg" viewBox="0 0 26 26" enable-background="new 0 0 26 26">
    <path d="M 12 4 C 11.4 4 11 4.4 11 5 L 11 7 C 11 7.6 11.4 8 12 8 L 14 8 C 14.6 8 15 7.6 15 7 L 15 5 C 15 4.4 14.6 4 14 4 L 12 4 z M 4 11 C 3.4 11 3 11.4 3 12 L 3 14 C 3 14.6 3.4 15 4 15 L 22 15 C 22.6 15 23 14.6 23 14 L 23 12 C 23 11.4 22.6 11 22 11 L 4 11 z M 12 18 C 11.4 18 11 18.4 11 19 L 11 21 C 11 21.6 11.4 22 12 22 L 14 22 C 14.6 22 15 21.6 15 21 L 15 19 C 15 18.4 14.6 18 14 18 L 12 18 z"/>
</svg>
