<?xml version="1.0" encoding="iso-8859-1"?>
<!-- Generator: Adobe Illustrator 16.0.0, SVG Export Plug-In . SVG Version: 6.00 Build 0)  -->
<!DOCTYPE svg PUBLIC "-//W3C//DTD SVG 1.1//EN" "http://www.w3.org/Graphics/SVG/1.1/DTD/svg11.dtd">
<svg version="1.1" id="Capa_1" xmlns="http://www.w3.org/2000/svg" xmlns:xlink="http://www.w3.org/1999/xlink" x="0px" y="0px"
	 width="313.889px" height="313.889px" viewBox="0 0 313.889 313.889" style="enable-background:new 0 0 313.889 313.889;"
	 xml:space="preserve">
<g>
	<g>
		<path d="M171.353,0v142.539h142.536V0H171.353z M276.4,83.182h-65.38c-7.962,0-14.423-6.455-14.423-14.417
			s6.461-14.426,14.423-14.426h65.393c7.962,0,14.423,6.464,14.423,14.426S284.363,83.182,276.4,83.182z"/>
		<path d="M0,142.533h142.524V0H0V142.533z M38.572,54.338h18.273v-18.27c0-7.962,6.452-14.417,14.42-14.417
			c7.974,0,14.423,6.455,14.423,14.417v18.27h18.282c7.962,0,14.42,6.464,14.42,14.426s-6.458,14.417-14.42,14.417H85.688v18.27
			c0,7.962-6.449,14.427-14.423,14.427c-7.968,0-14.42-6.464-14.42-14.427v-18.27H38.572c-7.965,0-14.426-6.455-14.426-14.417
			S30.606,54.338,38.572,54.338z"/>
		<path d="M0,313.889h142.524V171.371H0V313.889z M37.957,229.72c-5.632-5.633-5.632-14.76,0-20.393s14.757-5.633,20.389,0
			l12.913,12.923l12.932-12.935c5.614-5.633,14.757-5.633,20.389,0s5.632,14.76,0,20.393l-12.931,12.928l12.919,12.916
			c5.639,5.633,5.639,14.76,0,20.393c-2.816,2.816-6.506,4.228-10.19,4.228c-3.696,0-7.383-1.411-10.193-4.228l-12.926-12.922
			L58.334,275.95c-2.811,2.816-6.5,4.233-10.196,4.233c-3.681,0-7.377-1.411-10.193-4.233c-5.632-5.632-5.632-14.754,0-20.386
			l12.932-12.929L37.957,229.72z"/>
		<path d="M171.353,313.889h142.536V171.371H171.353V313.889z M211.021,207.489h65.393c7.962,0,14.423,6.456,14.423,14.418
			c0,7.963-6.461,14.418-14.423,14.418h-65.393c-7.962,0-14.423-6.455-14.423-14.418
			C196.598,213.945,203.059,207.489,211.021,207.489z M211.021,248.947h65.393c7.962,0,14.423,6.461,14.423,14.423
			c0,7.963-6.461,14.424-14.423,14.424h-65.393c-7.962,0-14.423-6.461-14.423-14.424
			C196.598,255.408,203.059,248.947,211.021,248.947z"/>
	</g>
</g>
<g>
</g>
<g>
</g>
<g>
</g>
<g>
</g>
<g>
</g>
<g>
</g>
<g>
</g>
<g>
</g>
<g>
</g>
<g>
</g>
<g>
</g>
<g>
</g>
<g>
</g>
<g>
</g>
<g>
</g>
</svg>
