<?xml version="1.0" encoding="iso-8859-1"?>
<!-- Generator: Adobe Illustrator 17.1.0, SVG Export Plug-In . SVG Version: 6.00 Build 0)  -->
<!DOCTYPE svg PUBLIC "-//W3C//DTD SVG 1.1//EN" "http://www.w3.org/Graphics/SVG/1.1/DTD/svg11.dtd">
<svg version="1.1" id="Capa_1" xmlns="http://www.w3.org/2000/svg" xmlns:xlink="http://www.w3.org/1999/xlink" x="0px" y="0px"
	 viewBox="0 0 191.836 191.836" style="enable-background:new 0 0 191.836 191.836;" xml:space="preserve">
<path d="M70.806,0.975H17.313C7.767,0.975,0,8.741,0,18.288V71.78c0,9.547,7.767,17.314,17.313,17.314h53.492
	c9.547,0,17.313-7.767,17.313-17.314V18.288C88.119,8.741,80.353,0.975,70.806,0.975z M61.365,50.034H49.06v12.305
	c0,2.761-2.239,5-5,5s-5-2.239-5-5V50.034H26.754c-2.761,0-5-2.239-5-5s2.239-5,5-5H39.06V27.729c0-2.761,2.239-5,5-5s5,2.239,5,5
	v12.305h12.305c2.761,0,5,2.239,5,5S64.126,50.034,61.365,50.034z M70.806,102.742H17.313C7.767,102.742,0,110.509,0,120.056v53.492
	c0,9.547,7.767,17.314,17.313,17.314h53.492c9.547,0,17.313-7.767,17.313-17.314v-53.492
	C88.119,110.509,80.353,102.742,70.806,102.742z M61.365,151.802h-34.61c-2.761,0-5-2.239-5-5s2.239-5,5-5h34.61
	c2.761,0,5,2.239,5,5S64.126,151.802,61.365,151.802z M174.523,0.975H121.03c-9.547,0-17.313,7.767-17.313,17.313V71.78
	c0,9.547,7.767,17.314,17.313,17.314h53.492c9.547,0,17.313-7.767,17.313-17.314V18.288C191.836,8.741,184.069,0.975,174.523,0.975z
	 M163.548,53.735c1.953,1.953,1.953,5.119,0,7.071c-0.977,0.976-2.256,1.464-3.536,1.464s-2.559-0.488-3.536-1.464l-8.701-8.701
	l-8.701,8.701c-0.977,0.976-2.256,1.464-3.536,1.464s-2.559-0.488-3.536-1.464c-1.953-1.953-1.953-5.119,0-7.071l8.701-8.701
	l-8.701-8.701c-1.953-1.953-1.953-5.119,0-7.071c1.953-1.952,5.118-1.952,7.071,0l8.701,8.701l8.701-8.701
	c1.953-1.952,5.118-1.952,7.071,0c1.953,1.953,1.953,5.119,0,7.071l-8.701,8.701L163.548,53.735z M174.523,102.742H121.03
	c-9.547,0-17.313,7.767-17.313,17.314v53.492c0,9.547,7.767,17.314,17.313,17.314h53.492c9.547,0,17.313-7.767,17.313-17.314
	v-53.492C191.836,110.509,184.069,102.742,174.523,102.742z M147.776,123.906c2.807,0,5.083,2.276,5.083,5.083
	c0,2.808-2.276,5.083-5.083,5.083c-2.807,0-5.083-2.276-5.083-5.083C142.693,126.182,144.969,123.906,147.776,123.906z
	 M147.776,169.697c-2.807,0-5.083-2.276-5.083-5.083c0-2.807,2.276-5.083,5.083-5.083c2.807,0,5.083,2.276,5.083,5.083
	C152.86,167.422,150.584,169.697,147.776,169.697z M165.082,151.802h-34.61c-2.761,0-5-2.239-5-5s2.239-5,5-5h34.61
	c2.761,0,5,2.239,5,5S167.843,151.802,165.082,151.802z"/>
<g>
</g>
<g>
</g>
<g>
</g>
<g>
</g>
<g>
</g>
<g>
</g>
<g>
</g>
<g>
</g>
<g>
</g>
<g>
</g>
<g>
</g>
<g>
</g>
<g>
</g>
<g>
</g>
<g>
</g>
</svg>
