<?xml version="1.0" encoding="iso-8859-1"?>
<!-- Generator: Adobe Illustrator 17.1.0, SVG Export Plug-In . SVG Version: 6.00 Build 0)  -->
<!DOCTYPE svg PUBLIC "-//W3C//DTD SVG 1.1//EN" "http://www.w3.org/Graphics/SVG/1.1/DTD/svg11.dtd">
<svg version="1.1" id="Capa_1" xmlns="http://www.w3.org/2000/svg" xmlns:xlink="http://www.w3.org/1999/xlink" x="0px" y="0px"
	 viewBox="0 0 209.761 209.761" style="enable-background:new 0 0 209.761 209.761;" xml:space="preserve">
<path d="M35.23,181.762c-0.781,0-1.523-0.46-1.845-1.225l-4.133-9.828c-0.428-1.018,0.05-2.191,1.068-2.619
	c3.031-1.275,5.148-3.823,5.99-6.762H25.262c-1.104,0-2-0.896-2-2v-10.662c0-0.07,0.003-0.139,0.011-0.206
	c-0.352,0.105-0.702,0.231-1.048,0.377c-0.49,0.205-1.041,0.208-1.531,0.008c-0.491-0.201-0.883-0.588-1.088-1.077l-5.668-13.48
	c-0.428-1.019,0.05-2.191,1.068-2.619c5.308-2.232,7.811-8.367,5.578-13.675c-1.081-2.571-3.099-4.568-5.682-5.621
	c-2.583-1.054-5.421-1.039-7.993,0.043c-0.49,0.205-1.041,0.208-1.531,0.008c-0.491-0.201-0.883-0.588-1.088-1.077l-4.133-9.828
	c-0.428-1.019,0.05-2.191,1.068-2.619l28.081-11.809c-1.271-0.539-2.644-0.822-4.044-0.822c-1.104,0-2-0.896-2-2V73.609
	c0-1.104,0.896-2,2-2h40.864l103.328-43.453c1.019-0.429,2.191,0.05,2.619,1.068l4.133,9.828c0.206,0.489,0.208,1.04,0.008,1.531
	c-0.201,0.491-0.588,0.883-1.077,1.088c-5.309,2.232-7.811,8.367-5.579,13.675c1.081,2.571,3.099,4.568,5.682,5.622
	c2.583,1.054,5.422,1.038,7.993-0.043c0.489-0.206,1.04-0.208,1.531-0.008c0.491,0.201,0.883,0.588,1.088,1.077l4.043,9.616h17.864
	c1.104,0,2,0.896,2,2V84.27c0,1.104-0.896,2-2,2c-5.758,0-10.443,4.685-10.443,10.443c0,0.348,0.019,0.697,0.055,1.047
	c0.397-0.115,0.79-0.253,1.177-0.416c0.489-0.205,1.04-0.208,1.531-0.008c0.491,0.201,0.883,0.588,1.088,1.077l3.477,8.268
	c1.006,0.316,2.05,0.476,3.115,0.476c1.104,0,2,0.896,2,2v14.624c0,1.104-0.896,2-2,2c-5.758,0-10.443,4.685-10.443,10.443
	s4.685,10.443,10.443,10.443c1.104,0,2,0.896,2,2v10.662c0,1.104-0.896,2-2,2H84.223l-48.219,20.277
	C35.751,181.712,35.488,181.762,35.23,181.762z M33.662,170.875l2.636,6.268l46.646-19.616c0.031-0.015,0.062-0.029,0.094-0.042
	l117.801-49.538l-2.634-6.264c-0.639,0.171-1.285,0.297-1.935,0.378c-0.08,0.019-0.162,0.034-0.245,0.043
	c-6.33,0.717-12.465-2.882-14.932-8.749c-2.824-6.716-0.168-14.388,5.925-18.01l-0.404-0.96c-0.084-0.2-0.134-0.41-0.15-0.621
	l-3.576-8.503c-6.849,1.821-14.191-1.647-17.016-8.363s-0.168-14.388,5.925-18.01l-2.636-6.269L4.619,101.813l2.635,6.267
	c3.023-0.809,6.21-0.612,9.158,0.59c3.572,1.457,6.363,4.218,7.858,7.774c2.824,6.716,0.168,14.388-5.925,18.01l4.225,10.047
	c6.852-1.821,14.191,1.647,17.016,8.363C42.411,159.58,39.755,167.253,33.662,170.875z M93.735,157.328h112.026v-6.8
	c-7.021-0.977-12.443-7.02-12.443-14.305c0-7.286,5.422-13.329,12.443-14.305v-10.9c-0.449-0.063-0.894-0.146-1.335-0.251
	c-0.062,0.034-0.126,0.065-0.192,0.093l-20.137,8.468v30.234c0,1.104-0.896,2-2,2h-74.421c-0.069,0-0.138-0.003-0.205-0.01
	L93.735,157.328z M27.262,157.328h9.289c-0.108-0.988-0.357-1.95-0.747-2.875c-0.912-2.169-2.518-3.945-4.572-5.077
	c-1.26,0.571-2.599,0.959-3.971,1.151V157.328z M116.958,147.562h63.139v-26.552l-13.174,5.54v11.045c0,1.104-0.896,2-2,2
	s-2-0.896-2-2v-9.363l-17.51,7.363h3.999c1.104,0,2,0.896,2,2s-0.896,2-2,2h-13.511L116.958,147.562z M191.573,75.609
	c0.333,0.984-0.146,2.074-1.12,2.483c-2.571,1.081-4.568,3.099-5.622,5.682c-1.053,2.583-1.038,5.421,0.043,7.992l0,0
	c1.081,2.572,3.099,4.568,5.682,5.622c0.918,0.375,1.87,0.614,2.83,0.719c-0.046-0.465-0.07-0.93-0.07-1.393
	c0-7.286,5.422-13.329,12.443-14.305v-6.8H191.573z M27.262,82.41c2.402,0.338,4.685,1.28,6.641,2.747l22.704-9.548H27.262V82.41z
	 M55.101,162.811c-0.257,0-0.513-0.049-0.755-0.148c-0.491-0.201-0.883-0.588-1.088-1.077L27.6,100.574
	c-0.428-1.018,0.05-2.191,1.068-2.619l120.915-50.848c1.019-0.428,2.191,0.05,2.619,1.068l25.658,61.013
	c0.206,0.489,0.208,1.04,0.008,1.531c-0.201,0.491-0.588,0.883-1.077,1.088L55.876,162.655
	C55.628,162.759,55.364,162.811,55.101,162.811z M32.063,100.867l24.106,57.325l117.228-49.297L149.29,51.57L32.063,100.867z
	 M66.294,145.123c-0.781,0-1.523-0.46-1.845-1.225l-15.604-37.107l-6.4,2.691c-1.019,0.428-2.191-0.05-2.619-1.068
	c-0.428-1.019,0.05-2.191,1.068-2.619l8.236-3.463c0.005-0.002,0.011-0.004,0.016-0.007l8.236-3.463
	c1.02-0.428,2.191,0.05,2.619,1.068s-0.05,2.191-1.068,2.619l-6.4,2.691l15.604,37.107c0.428,1.018-0.05,2.191-1.068,2.619
	C66.815,145.073,66.552,145.123,66.294,145.123z M80.99,138.943c-0.781,0-1.523-0.46-1.845-1.225l-16.38-38.951
	c-0.428-1.019,0.05-2.191,1.068-2.619c1.02-0.428,2.191,0.051,2.619,1.068l16.38,38.951c0.428,1.018-0.05,2.191-1.068,2.619
	C81.511,138.893,81.249,138.943,80.99,138.943z M88.757,135.677c-0.111,0-0.222-0.009-0.331-0.028c-0.522-0.087-1-0.381-1.313-0.83
	c-0.075-0.109-0.141-0.227-0.196-0.354c0-0.001-0.001-0.002-0.001-0.003c0-0.001,0-0.001-0.001-0.002
	c-0.001-0.003-0.002-0.005-0.003-0.008l-16.38-38.951c-0.428-1.018,0.05-2.191,1.068-2.619c0.002-0.001,0.004-0.001,0.006-0.002
	l12.46-5.24c0.489-0.206,1.04-0.208,1.531-0.008c0.491,0.201,0.883,0.588,1.088,1.077l2.615,6.218
	c0.428,1.019-0.05,2.191-1.068,2.619c-1.019,0.428-2.191-0.051-2.619-1.068l-1.839-4.375l-8.779,3.692l14.829,35.263l8.779-3.691
	l-1.5-3.567c-0.428-1.019,0.05-2.191,1.068-2.619c1.02-0.428,2.191,0.051,2.619,1.068l2.275,5.411
	c0.428,1.019-0.05,2.191-1.068,2.619l-12.466,5.242C89.278,135.627,89.015,135.677,88.757,135.677z M108.073,127.555
	c-0.781,0-1.523-0.46-1.845-1.225l-16.38-38.951c-0.428-1.018,0.05-2.191,1.068-2.619c1.021-0.429,2.191,0.05,2.619,1.068
	l5.667,13.478l3.75-18.657c0.217-1.083,1.272-1.784,2.355-1.567c1.083,0.218,1.784,1.272,1.567,2.355l-4.765,23.705l20.273,13.175
	c0.926,0.602,1.189,1.84,0.587,2.767c-0.601,0.926-1.841,1.189-2.767,0.587l-15.957-10.369l5.668,13.478
	c0.428,1.018-0.05,2.191-1.068,2.619C108.594,127.504,108.331,127.555,108.073,127.555z M128.783,118.845
	c-0.113,0-0.225-0.01-0.335-0.028c-0.652-0.111-1.234-0.542-1.51-1.197l-8.182-19.457c-0.002-0.006-0.005-0.012-0.008-0.018
	c-0.002-0.006-0.005-0.012-0.007-0.019l-8.183-19.457c-0.072-0.171-0.118-0.347-0.141-0.522c-0.111-0.869,0.362-1.741,1.209-2.097
	c0.002-0.001,0.004-0.001,0.006-0.002l12.459-5.24c1.02-0.428,2.191,0.051,2.619,1.068c0.428,1.018-0.05,2.191-1.068,2.619
	l-10.622,4.467l6.639,15.788l10.622-4.467c1.021-0.429,2.19,0.05,2.619,1.068c0.428,1.018-0.05,2.191-1.068,2.619l-10.622,4.467
	l6.639,15.788l10.622-4.467c1.019-0.428,2.191,0.051,2.619,1.068c0.428,1.018-0.05,2.191-1.068,2.619l-12.466,5.242
	C129.304,118.795,129.041,118.845,128.783,118.845z M155.547,107.59c-0.781,0-1.523-0.46-1.845-1.225l-15.604-37.107l-6.4,2.692
	c-1.02,0.429-2.191-0.05-2.619-1.068c-0.428-1.019,0.05-2.191,1.068-2.619l16.488-6.934c1.02-0.428,2.191,0.05,2.619,1.068
	s-0.05,2.191-1.068,2.619l-6.4,2.691l15.604,37.107c0.428,1.019-0.05,2.191-1.068,2.619
	C156.068,107.54,155.805,107.59,155.547,107.59z"/>
<g>
</g>
<g>
</g>
<g>
</g>
<g>
</g>
<g>
</g>
<g>
</g>
<g>
</g>
<g>
</g>
<g>
</g>
<g>
</g>
<g>
</g>
<g>
</g>
<g>
</g>
<g>
</g>
<g>
</g>
</svg>
